<svg width="834" height="424" viewBox="0 0 834 424" fill="none" xmlns="http://www.w3.org/2000/svg">
<path d="M83.1158 35.2983C51.2402 62.8768 82.6656 85.7073 68.2632 126.108C50.1376 176.952 5.25854 152.638 0.601344 206.637C-3.80019 257.672 16.5673 262.014 41.8584 306.013C63.6313 343.892 50.5656 382.18 83.1158 410.53C142.143 461.94 194.207 349.68 271.249 348.848C344.106 348.061 378.766 409.048 451.132 400.249C502.244 394.035 523.315 361.752 573.253 348.848C658.934 326.709 783.281 438.987 799.344 348.848C805.575 313.877 762.115 289.291 781.191 259.752C797.762 234.09 834 237.533 834 206.637C834 150.095 825.966 165.573 799.344 126.108C772.658 86.548 762.064 52.1804 718.479 35.2983C663.707 14.0828 631.622 76.3869 573.253 72.9928C505.237 69.0377 480.886 8.79419 413.175 1.03062C330.358 -8.46486 306.64 50.872 223.391 47.292C162.79 44.686 112.821 9.59762 83.1158 35.2983Z" fill="#FBD756" fill-opacity="0.84"/>
<rect x="220" y="81" width="365" height="251" rx="30" fill="white"/>
<rect x="220" y="81" width="365" height="49" rx="18" fill="#505050"/>
<circle cx="340.5" cy="94.5" r="3.5" fill="white"/>
<circle cx="464.5" cy="94.5" r="3.5" fill="white"/>
<rect x="256" y="141" width="81" height="50" rx="18" fill="#DCDCDC"/>
<rect x="256" y="202" width="81" height="50" rx="18" fill="#DCDCDC"/>
<rect x="256" y="263" width="81" height="50" rx="18" fill="#DCDCDC"/>
<rect x="362" y="141" width="81" height="50" rx="18" fill="#DCDCDC"/>
<rect x="362" y="202" width="81" height="50" rx="18" fill="#DCDCDC"/>
<rect x="362" y="263" width="81" height="50" rx="18" fill="#DCDCDC"/>
<rect x="468" y="141" width="81" height="50" rx="18" fill="#DCDCDC"/>
<rect x="468" y="202" width="81" height="50" rx="18" fill="#DCDCDC"/>
<rect x="468" y="263" width="81" height="50" rx="18" fill="#DCDCDC"/>
<path d="M296.689 180L274 162.988L284.924 152.199L296.689 162.988L341.857 130L349 139.751L296.689 180Z" fill="#FCEE10"/>
<path d="M403.689 180L381 162.988L391.924 152.199L403.689 162.988L448.857 130L456 139.751L403.689 180Z" fill="#FCEE10"/>
</svg>
