<svg width="71" height="71" viewBox="0 0 71 71" fill="none" xmlns="http://www.w3.org/2000/svg">
<circle cx="35.5" cy="35.5" r="35.5" fill="white"/>
<path fill-rule="evenodd" clip-rule="evenodd" d="M47.05 19.95H46.7667L46.0583 15.8417C46.0583 15.5583 44.6417 14 44.3583 14H27.5C27.075 14 26.0833 15.4167 26.0833 15.7L25.2333 19.8083H24.95C24.3833 20.0917 19 21.9333 19 25.3333C19 28.1667 23.1083 54.375 23.25 55.5083C23.3917 56.075 23.8167 56.5 24.3833 56.5H47.7583C48.325 56.5 48.75 56.075 48.75 55.65C49.175 52.8167 53 27.8833 53 25.475C53 22.5 48.0417 20.375 47.05 19.95ZM35.0083 22.5H37.1333L37.4167 24.625H34.5833L35.0083 22.5ZM27.7833 17.825L33.025 21.3667L32.4583 24.3417L27.2167 20.8L27.7833 17.825ZM33.7333 27.0333C33.875 26.8917 34.0167 26.8917 34.1583 26.75H37.7L39.1167 34.6833L31.4667 39.6417L33.7333 27.0333ZM35.575 46.3L31.75 42.05L39.5417 36.95L40.3917 41.3417L35.575 46.3ZM39.5417 24.3417L38.975 21.3667L43.65 18.25H44.2167L44.6417 20.8L39.5417 24.3417Z" fill="#FFC821"/>
</svg>
