<svg width="71" height="71" viewBox="0 0 71 71" fill="none" xmlns="http://www.w3.org/2000/svg">
<circle cx="35.5" cy="35.5" r="35.5" fill="white"/>
<path fill-rule="evenodd" clip-rule="evenodd" d="M55.2407 18H15.7593C15.3401 18 15 18.3401 15 18.7593V46.0926C15 46.5125 15.3401 46.8519 15.7593 46.8519H34.7407V51.4074H27.9074C27.4883 51.4074 27.1481 51.7468 27.1481 52.1667C27.1481 52.5865 27.4883 52.9259 27.9074 52.9259H43.0926C43.5125 52.9259 43.8519 52.5865 43.8519 52.1667C43.8519 51.7468 43.5125 51.4074 43.0926 51.4074H36.2593V46.8519H55.2407C55.6606 46.8519 56 46.5125 56 46.0926V18.7593C56 18.3401 55.6606 18 55.2407 18ZM33.759 33.4076C34.0559 33.7045 34.0559 34.1844 33.759 34.4812C33.611 34.6293 33.4166 34.7037 33.2222 34.7037C33.0279 34.7037 32.8335 34.6293 32.6854 34.4812L31.1669 32.9627C30.87 32.6659 30.87 32.186 31.1669 31.8891L32.6854 30.3706C32.9823 30.0737 33.4621 30.0737 33.759 30.3706C34.0559 30.6675 34.0559 31.1473 33.759 31.4442L32.7773 32.4259L33.759 33.4076ZM36.9957 29.5734L35.4772 35.6475C35.3907 35.9922 35.0816 36.2222 34.7415 36.2222C34.68 36.2222 34.6185 36.2154 34.5562 36.1994C34.1493 36.0977 33.9025 35.6854 34.0035 35.2785L35.522 29.2044C35.6238 28.7982 36.0376 28.5499 36.4422 28.6516C36.85 28.7541 37.0975 29.1664 36.9957 29.5734ZM39.8331 32.9627L38.3146 34.4812C38.1665 34.6293 37.9721 34.7037 37.7778 34.7037C37.5834 34.7037 37.389 34.6293 37.241 34.4812C36.9441 34.1844 36.9441 33.7045 37.241 33.4076L38.2227 32.4259L37.241 31.4442C36.9441 31.1473 36.9441 30.6675 37.241 30.3706C37.5379 30.0737 38.0177 30.0737 38.3146 30.3706L39.8331 31.8891C40.13 32.186 40.13 32.6659 39.8331 32.9627Z" fill="#FFC821"/>
</svg>
